{
  "accessors": [
    {
      "bufferView": 2,
      "componentType": 5126,
      "count": 44527,
      "max": [
        0.17533497512340546,
        0.35349759459495544,
        0.10137498378753662
      ],
      "min": [
        -0.1683018058538437,
        -0.470293253660202,
        -0.09113621711730957
      ],
      "type": "VEC3"
    },
    {
      "bufferView": 2,
      "byteOffset": 534324,
      "componentType": 5126,
      "count": 44527,
      "max": [
        0.9999956488609314,
        0.999994158744812,
        0.9999977946281433
      ],
      "min": [
        -0.9999992847442627,
        -0.9999993443489075,
        -0.9999701380729675
      ],
      "type": "VEC3"
    },
    {
      "bufferView": 1,
      "componentType": 5126,
      "count": 44527,
      "max": [
        0.998058021068573,
        0.9981989860534668
      ],
      "min": [
        0.0017999999690800905,
        0.0017999999690800905
      ],
      "type": "VEC2"
    },
    {
      "bufferView": 0,
      "componentType": 5125,
      "count": 225384,
      "type": "SCALAR"
    }
  ],
  "asset": {
    "extras": {
      "author": "bystudio (https://sketchfab.com/yalmanpourvatan)",
      "license": "CC-BY-4.0 (http://creativecommons.org/licenses/by/4.0/)",
      "source": "https://sketchfab.com/3d-models/jeans-0a5fb5f1cab44726bdfea1ce928e6198",
      "title": "Jeans"
    },
    "generator": "Sketchfab-12.68.0",
    "version": "2.0"
  },
  "bufferViews": [
    {
      "buffer": 0,
      "byteLength": 901536,
      "name": "floatBufferViews",
      "target": 34963
    },
    {
      "buffer": 0,
      "byteLength": 356216,
      "byteOffset": 901536,
      "byteStride": 8,
      "name": "floatBufferViews",
      "target": 34962
    },
    {
      "buffer": 0,
      "byteLength": 1068648,
      "byteOffset": 1257752,
      "byteStride": 12,
      "name": "floatBufferViews",
      "target": 34962
    }
  ],
  "buffers": [
    {
      "byteLength": 2326400,
      "uri": "scene.bin"
    }
  ],
  "materials": [
    {
      "doubleSided": true,
      "name": "blinn3",
      "pbrMetallicRoughness": {
        "baseColorFactor": [
          0.5,
          0.5,
          0.5,
          1.0
        ],
        "metallicFactor": 0.0,
        "roughnessFactor": 0.9207483816249483
      }
    }
  ],
  "meshes": [
    {
      "name": "Jean_Final_Blender_Thick_SeamsColor_blinn3_0",
      "primitives": [
        {
          "attributes": {
            "NORMAL": 1,
            "POSITION": 0,
            "TEXCOORD_0": 2
          },
          "indices": 3,
          "material": 0,
          "mode": 4
        }
      ]
    }
  ],
  "nodes": [
    {
      "children": [
        1
      ],
      "matrix": [
        1.0,
        0.0,
        0.0,
        0.0,
        0.0,
        2.220446049250313e-16,
        -1.0,
        0.0,
        0.0,
        1.0,
        2.220446049250313e-16,
        0.0,
        0.0,
        0.0,
        0.0,
        1.0
      ],
      "name": "Sketchfab_model"
    },
    {
      "children": [
        2
      ],
      "matrix": [
        0.009999999776482582,
        0.0,
        0.0,
        0.0,
        0.0,
        0.0,
        0.009999999776482582,
        0.0,
        0.0,
        -0.009999999776482582,
        0.0,
        0.0,
        0.0,
        0.0,
        0.0,
        1.0
      ],
      "name": "750dd38d37bf4ad98e8d81f16bd3700e.fbx"
    },
    {
      "children": [
        3
      ],
      "name": "RootNode"
    },
    {
      "children": [
        4
      ],
      "matrix": [
        -99.99999999999245,
        -1.2246467991471622e-14,
        3.894143777553012e-05,
        0.0,
        -6.356611634421782e-12,
        99.99999999999866,
        -1.629206708545435e-05,
        0.0,
        -3.8941437775529605e-05,
        -1.629206708545559e-05,
        -99.99999999999112,
        0.0,
        0.0,
        51.070369720458984,
        -1.4313793182373047,
        1.0
      ],
      "name": "Jean_Final_Blender_Thick_SeamsColor"
    },
    {
      "mesh": 0,
      "name": "Jean_Final_Blender_Thick_SeamsColor_blinn3_0"
    }
  ],
  "scene": 0,
  "scenes": [
    {
      "name": "Sketchfab_Scene",
      "nodes": [
        0
      ]
    }
  ]
}
