{
  "accessors": [
    {
      "bufferView": 2,
      "componentType": 5126,
      "count": 65532,
      "max": [
        5.4085612297058105,
        2.0825700759887695,
        1.725973129272461
      ],
      "min": [
        0.04286623001098633,
        0.05225563049316406,
        0.006536960601806641
      ],
      "type": "VEC3"
    },
    {
      "bufferView": 2,
      "byteOffset": 786384,
      "componentType": 5126,
      "count": 65532,
      "max": [
        0.9999958872795105,
        0.9999856352806091,
        0.9999992251396179
      ],
      "min": [
        -0.9999852180480957,
        -0.9999816417694092,
        -0.9999910593032837
      ],
      "type": "VEC3"
    },
    {
      "bufferView": 1,
      "componentType": 5126,
      "count": 65532,
      "max": [
        0.9791355133056641,
        0.9956326484680176
      ],
      "min": [
        0.021729033440351486,
        0.013954348862171173
      ],
      "type": "VEC2"
    },
    {
      "bufferView": 0,
      "componentType": 5125,
      "count": 334866,
      "type": "SCALAR"
    },
    {
      "bufferView": 2,
      "byteOffset": 1572768,
      "componentType": 5126,
      "count": 65532,
      "max": [
        5.399659156799316,
        2.085848808288574,
        1.7314887046813965
      ],
      "min": [
        0.13287067413330078,
        0.03369426727294922,
        7.206201553344727e-05
      ],
      "type": "VEC3"
    },
    {
      "bufferView": 2,
      "byteOffset": 2359152,
      "componentType": 5126,
      "count": 65532,
      "max": [
        0.9999985098838806,
        0.9999989867210388,
        0.9999736547470093
      ],
      "min": [
        -0.9998263120651245,
        -0.999992847442627,
        -0.9999626874923706
      ],
      "type": "VEC3"
    },
    {
      "bufferView": 1,
      "byteOffset": 524256,
      "componentType": 5126,
      "count": 65532,
      "max": [
        0.9883562326431274,
        0.9898992776870728
      ],
      "min": [
        0.030528701841831207,
        0.005206787958741188
      ],
      "type": "VEC2"
    },
    {
      "bufferView": 0,
      "byteOffset": 1339464,
      "componentType": 5125,
      "count": 337770,
      "type": "SCALAR"
    },
    {
      "bufferView": 2,
      "byteOffset": 3145536,
      "componentType": 5126,
      "count": 65532,
      "max": [
        5.405435562133789,
        2.0503835678100586,
        1.7263667583465576
      ],
      "min": [
        0.0,
        0.0,
        0.0
      ],
      "type": "VEC3"
    },
    {
      "bufferView": 2,
      "byteOffset": 3931920,
      "componentType": 5126,
      "count": 65532,
      "max": [
        0.999999463558197,
        0.9999802112579346,
        0.9999736547470093
      ],
      "min": [
        -0.9999236464500427,
        -0.9999325275421143,
        -0.9999964833259583
      ],
      "type": "VEC3"
    },
    {
      "bufferView": 1,
      "byteOffset": 1048512,
      "componentType": 5126,
      "count": 65532,
      "max": [
        0.9857195615768433,
        0.9954850673675537
      ],
      "min": [
        0.00930398516356945,
        0.003222264349460602
      ],
      "type": "VEC2"
    },
    {
      "bufferView": 0,
      "byteOffset": 2690544,
      "componentType": 5125,
      "count": 325998,
      "type": "SCALAR"
    },
    {
      "bufferView": 2,
      "byteOffset": 4718304,
      "componentType": 5126,
      "count": 65532,
      "max": [
        5.403050422668457,
        2.082225799560547,
        1.7221369743347168
      ],
      "min": [
        0.00023627281188964844,
        0.0063915252685546875,
        0.0017055869102478027
      ],
      "type": "VEC3"
    },
    {
      "bufferView": 2,
      "byteOffset": 5504688,
      "componentType": 5126,
      "count": 65532,
      "max": [
        0.999977707862854,
        0.9999938011169434,
        0.9999871253967285
      ],
      "min": [
        -0.9999491572380066,
        -0.9999985098838806,
        -0.9999985098838806
      ],
      "type": "VEC3"
    },
    {
      "bufferView": 1,
      "byteOffset": 1572768,
      "componentType": 5126,
      "count": 65532,
      "max": [
        0.9928383827209473,
        0.9971059560775757
      ],
      "min": [
        0.00420089066028595,
        0.004607944283634424
      ],
      "type": "VEC2"
    },
    {
      "bufferView": 0,
      "byteOffset": 3994536,
      "componentType": 5125,
      "count": 312732,
      "type": "SCALAR"
    },
    {
      "bufferView": 2,
      "byteOffset": 6291072,
      "componentType": 5126,
      "count": 65532,
      "max": [
        5.408084869384766,
        2.0828142166137695,
        1.730483055114746
      ],
      "min": [
        0.0002372264862060547,
        4.9591064453125e-05,
        0.0
      ],
      "type": "VEC3"
    },
    {
      "bufferView": 2,
      "byteOffset": 7077456,
      "componentType": 5126,
      "count": 65532,
      "max": [
        0.9999992251396179,
        0.9999989867210388,
        0.9999992251396179
      ],
      "min": [
        -0.9999176859855652,
        -0.9999924302101135,
        -0.9999927282333374
      ],
      "type": "VEC3"
    },
    {
      "bufferView": 1,
      "byteOffset": 2097024,
      "componentType": 5126,
      "count": 65532,
      "max": [
        0.9877825379371643,
        0.9988762140274048
      ],
      "min": [
        0.0038014804013073444,
        0.004034294281154871
      ],
      "type": "VEC2"
    },
    {
      "bufferView": 0,
      "byteOffset": 5245464,
      "componentType": 5125,
      "count": 181734,
      "type": "SCALAR"
    },
    {
      "bufferView": 2,
      "byteOffset": 7863840,
      "componentType": 5126,
      "count": 5840,
      "max": [
        5.403764247894287,
        2.079378128051758,
        1.7309424877166748
      ],
      "min": [
        0.004749774932861328,
        0.015356063842773438,
        0.00826495885848999
      ],
      "type": "VEC3"
    },
    {
      "bufferView": 2,
      "byteOffset": 7933920,
      "componentType": 5126,
      "count": 5840,
      "max": [
        0.9997578859329224,
        0.9997529983520508,
        0.9999216198921204
      ],
      "min": [
        -0.9995670318603516,
        -0.9999985098838806,
        -0.9997952580451965
      ],
      "type": "VEC3"
    },
    {
      "bufferView": 1,
      "byteOffset": 2621280,
      "componentType": 5126,
      "count": 5840,
      "max": [
        0.9882546067237854,
        0.9994343519210815
      ],
      "min": [
        0.00582774868234992,
        0.005882370285689831
      ],
      "type": "VEC2"
    },
    {
      "bufferView": 0,
      "byteOffset": 5972400,
      "componentType": 5125,
      "count": 6924,
      "type": "SCALAR"
    }
  ],
  "asset": {
    "extras": {
      "author": "Nevena Knežević (https://sketchfab.com/gavez)",
      "license": "CC-BY-4.0 (http://creativecommons.org/licenses/by/4.0/)",
      "source": "https://sketchfab.com/3d-models/old-shoe-394abb35c7ef4c08bfb64778864d6410",
      "title": "Old shoe"
    },
    "generator": "Sketchfab-12.66.0",
    "version": "2.0"
  },
  "bufferViews": [
    {
      "buffer": 0,
      "byteLength": 6000096,
      "name": "floatBufferViews",
      "target": 34963
    },
    {
      "buffer": 0,
      "byteLength": 2668000,
      "byteOffset": 6000096,
      "byteStride": 8,
      "name": "floatBufferViews",
      "target": 34962
    },
    {
      "buffer": 0,
      "byteLength": 8004000,
      "byteOffset": 8668096,
      "byteStride": 12,
      "name": "floatBufferViews",
      "target": 34962
    }
  ],
  "buffers": [
    {
      "byteLength": 16672096,
      "uri": "scene.bin"
    }
  ],
  "extensionsUsed": [
    "KHR_materials_unlit"
  ],
  "images": [
    {
      "uri": "textures/material_0_baseColor.jpeg"
    }
  ],
  "materials": [
    {
      "doubleSided": true,
      "extensions": {
        "KHR_materials_unlit": {}
      },
      "name": "material_0",
      "pbrMetallicRoughness": {
        "baseColorTexture": {
          "index": 0
        },
        "metallicFactor": 0.0
      }
    }
  ],
  "meshes": [
    {
      "name": "Object_0",
      "primitives": [
        {
          "attributes": {
            "NORMAL": 1,
            "POSITION": 0,
            "TEXCOORD_0": 2
          },
          "indices": 3,
          "material": 0,
          "mode": 4
        }
      ]
    },
    {
      "name": "Object_1",
      "primitives": [
        {
          "attributes": {
            "NORMAL": 5,
            "POSITION": 4,
            "TEXCOORD_0": 6
          },
          "indices": 7,
          "material": 0,
          "mode": 4
        }
      ]
    },
    {
      "name": "Object_2",
      "primitives": [
        {
          "attributes": {
            "NORMAL": 9,
            "POSITION": 8,
            "TEXCOORD_0": 10
          },
          "indices": 11,
          "material": 0,
          "mode": 4
        }
      ]
    },
    {
      "name": "Object_3",
      "primitives": [
        {
          "attributes": {
            "NORMAL": 13,
            "POSITION": 12,
            "TEXCOORD_0": 14
          },
          "indices": 15,
          "material": 0,
          "mode": 4
        }
      ]
    },
    {
      "name": "Object_4",
      "primitives": [
        {
          "attributes": {
            "NORMAL": 17,
            "POSITION": 16,
            "TEXCOORD_0": 18
          },
          "indices": 19,
          "material": 0,
          "mode": 4
        }
      ]
    },
    {
      "name": "Object_5",
      "primitives": [
        {
          "attributes": {
            "NORMAL": 21,
            "POSITION": 20,
            "TEXCOORD_0": 22
          },
          "indices": 23,
          "material": 0,
          "mode": 4
        }
      ]
    }
  ],
  "nodes": [
    {
      "children": [
        1
      ],
      "matrix": [
        1.0,
        0.0,
        0.0,
        0.0,
        0.0,
        -5.053215392444312e-16,
        1.0,
        0.0,
        0.0,
        -1.0,
        -5.053215392444312e-16,
        0.0,
        0.0,
        1.1323251724243117,
        21.306352615356445,
        1.0
      ],
      "name": "Sketchfab_model"
    },
    {
      "children": [
        2,
        3,
        4,
        5,
        6,
        7
      ],
      "matrix": [
        1.0,
        0.0,
        0.0,
        0.0,
        0.0,
        1.0,
        0.0,
        0.0,
        0.0,
        0.0,
        1.0,
        0.0,
        -2.584906816482544,
        -11.69612979888916,
        -0.2995818257331848,
        1.0
      ],
      "name": "Hummel upload.OBJ.cleaner.gles"
    },
    {
      "mesh": 0,
      "name": "Object_2"
    },
    {
      "mesh": 1,
      "name": "Object_3"
    },
    {
      "mesh": 2,
      "name": "Object_4"
    },
    {
      "mesh": 3,
      "name": "Object_5"
    },
    {
      "mesh": 4,
      "name": "Object_6"
    },
    {
      "mesh": 5,
      "name": "Object_7"
    }
  ],
  "samplers": [
    {
      "magFilter": 9729,
      "minFilter": 9987,
      "wrapS": 10497,
      "wrapT": 10497
    }
  ],
  "scene": 0,
  "scenes": [
    {
      "name": "Sketchfab_Scene",
      "nodes": [
        0
      ]
    }
  ],
  "textures": [
    {
      "sampler": 0,
      "source": 0
    }
  ]
}
