{
  "accessors": [
    {
      "bufferView": 2,
      "componentType": 5126,
      "count": 1717,
      "max": [
        0.22806072235107422,
        0.15812648832798004,
        0.8364527821540833
      ],
      "min": [
        -0.239737406373024,
        -0.07422105222940445,
        0.01746225915849209
      ],
      "type": "VEC3"
    },
    {
      "bufferView": 2,
      "byteOffset": 20604,
      "componentType": 5126,
      "count": 1717,
      "max": [
        0.9999463558197021,
        0.9997222423553467,
        0.6387429237365723
      ],
      "min": [
        -0.9999566078186035,
        -0.9998730421066284,
        -0.9164464473724365
      ],
      "type": "VEC3"
    },
    {
      "bufferView": 1,
      "componentType": 5126,
      "count": 1717,
      "max": [
        0.7677947282791138,
        0.9930411577224731
      ],
      "min": [
        0.006714038550853729,
        0.006655409932136536
      ],
      "type": "VEC2"
    },
    {
      "bufferView": 1,
      "byteOffset": 13736,
      "componentType": 5126,
      "count": 1717,
      "max": [
        0.9401554465293884,
        0.9743680357933044
      ],
      "min": [
        0.02226307801902294,
        0.01550966128706932
      ],
      "type": "VEC2"
    },
    {
      "bufferView": 0,
      "componentType": 5125,
      "count": 9216,
      "type": "SCALAR"
    }
  ],
  "asset": {
    "extras": {
      "author": "Olst (https://sketchfab.com/OlegStebenyev)",
      "license": "CC-BY-4.0 (http://creativecommons.org/licenses/by/4.0/)",
      "source": "https://sketchfab.com/3d-models/jeans-03-c03ab71f0dad47dbab7844c4eef2bcfb",
      "title": "Jeans 03"
    },
    "generator": "Sketchfab-12.68.0",
    "version": "2.0"
  },
  "bufferViews": [
    {
      "buffer": 0,
      "byteLength": 36864,
      "name": "floatBufferViews",
      "target": 34963
    },
    {
      "buffer": 0,
      "byteLength": 27472,
      "byteOffset": 36864,
      "byteStride": 8,
      "name": "floatBufferViews",
      "target": 34962
    },
    {
      "buffer": 0,
      "byteLength": 41208,
      "byteOffset": 64336,
      "byteStride": 12,
      "name": "floatBufferViews",
      "target": 34962
    }
  ],
  "buffers": [
    {
      "byteLength": 105544,
      "uri": "scene.bin"
    }
  ],
  "images": [
    {
      "uri": "textures/Jeans_03_baseColor.png"
    }
  ],
  "materials": [
    {
      "doubleSided": true,
      "name": "Jeans_03",
      "pbrMetallicRoughness": {
        "baseColorTexture": {
          "index": 0
        },
        "metallicFactor": 0.0,
        "roughnessFactor": 0.8746641053345775
      }
    }
  ],
  "meshes": [
    {
      "name": "Jeans_03_Jeans_03_0",
      "primitives": [
        {
          "attributes": {
            "NORMAL": 1,
            "POSITION": 0,
            "TEXCOORD_0": 2,
            "TEXCOORD_1": 3
          },
          "indices": 4,
          "material": 0,
          "mode": 4
        }
      ]
    }
  ],
  "nodes": [
    {
      "children": [
        1
      ],
      "matrix": [
        1.0,
        0.0,
        0.0,
        0.0,
        0.0,
        2.220446049250313e-16,
        -1.0,
        0.0,
        0.0,
        1.0,
        2.220446049250313e-16,
        0.0,
        0.0,
        0.0,
        0.0,
        1.0
      ],
      "name": "Sketchfab_model"
    },
    {
      "children": [
        2
      ],
      "matrix": [
        0.009999999776482582,
        0.0,
        0.0,
        0.0,
        0.0,
        0.0,
        0.009999999776482582,
        0.0,
        0.0,
        -0.009999999776482582,
        0.0,
        0.0,
        0.0,
        0.0,
        0.0,
        1.0
      ],
      "name": "d9a68ff548b94f1cb5a64c06aba90dca.fbx"
    },
    {
      "children": [
        3
      ],
      "name": "RootNode"
    },
    {
      "children": [
        4
      ],
      "matrix": [
        100.0,
        0.0,
        0.0,
        0.0,
        0.0,
        -1.629206793918314e-05,
        -99.99999999999868,
        0.0,
        0.0,
        99.99999999999868,
        -1.629206793918314e-05,
        0.0,
        0.0,
        0.0,
        0.0,
        1.0
      ],
      "name": "Jeans_03"
    },
    {
      "mesh": 0,
      "name": "Jeans_03_Jeans_03_0"
    }
  ],
  "samplers": [
    {
      "magFilter": 9729,
      "minFilter": 9987,
      "wrapS": 10497,
      "wrapT": 10497
    }
  ],
  "scene": 0,
  "scenes": [
    {
      "name": "Sketchfab_Scene",
      "nodes": [
        0
      ]
    }
  ],
  "textures": [
    {
      "sampler": 0,
      "source": 0
    }
  ]
}
