{
  "accessors": [
    {
      "bufferView": 2,
      "componentType": 5126,
      "count": 1743,
      "max": [
        37.359230041503906,
        18.303741455078125,
        154.88668823242188
      ],
      "min": [
        -37.390724182128906,
        -11.112222671508789,
        93.17496490478516
      ],
      "type": "VEC3"
    },
    {
      "bufferView": 2,
      "byteOffset": 20916,
      "componentType": 5126,
      "count": 1743,
      "max": [
        0.9976517558097839,
        0.9999948740005493,
        0.9998290538787842
      ],
      "min": [
        -0.9992939233779907,
        -0.9994124174118042,
        -0.9972855448722839
      ],
      "type": "VEC3"
    },
    {
      "bufferView": 3,
      "componentType": 5126,
      "count": 1743,
      "max": [
        0.9999939799308777,
        0.9999728798866272,
        0.999384343624115,
        1.0
      ],
      "min": [
        -0.9999868869781494,
        -0.9998925924301147,
        -0.9994223117828369,
        1.0
      ],
      "type": "VEC4"
    },
    {
      "bufferView": 1,
      "componentType": 5126,
      "count": 1743,
      "max": [
        0.9886000156402588,
        0.9610999822616577
      ],
      "min": [
        0.024399999529123306,
        0.04019999876618385
      ],
      "type": "VEC2"
    },
    {
      "bufferView": 0,
      "componentType": 5125,
      "count": 8526,
      "type": "SCALAR"
    }
  ],
  "asset": {
    "extras": {
      "author": "Reallusion (https://sketchfab.com/reallusion)",
      "license": "CC-BY-4.0 (http://creativecommons.org/licenses/by/4.0/)",
      "source": "https://sketchfab.com/3d-models/t-shirt-t-pose-20fbb246bd19402c82e01d7541a72f8e",
      "title": "T-shirt T Pose"
    },
    "generator": "Sketchfab-12.65.0",
    "version": "2.0"
  },
  "bufferViews": [
    {
      "buffer": 0,
      "byteLength": 34104,
      "name": "floatBufferViews",
      "target": 34963
    },
    {
      "buffer": 0,
      "byteLength": 13944,
      "byteOffset": 34104,
      "byteStride": 8,
      "name": "floatBufferViews",
      "target": 34962
    },
    {
      "buffer": 0,
      "byteLength": 41832,
      "byteOffset": 48048,
      "byteStride": 12,
      "name": "floatBufferViews",
      "target": 34962
    },
    {
      "buffer": 0,
      "byteLength": 27888,
      "byteOffset": 89880,
      "byteStride": 16,
      "name": "floatBufferViews",
      "target": 34962
    }
  ],
  "buffers": [
    {
      "byteLength": 117768,
      "uri": "scene.bin"
    }
  ],
  "extensionsRequired": [
    "KHR_materials_pbrSpecularGlossiness"
  ],
  "extensionsUsed": [
    "KHR_materials_pbrSpecularGlossiness"
  ],
  "images": [
    {
      "uri": "textures/T_shirt_diffuse.jpeg"
    },
    {
      "uri": "textures/T_shirt_specularGlossiness.jpeg"
    },
    {
      "uri": "textures/T_shirt_normal.png"
    }
  ],
  "materials": [
    {
      "doubleSided": true,
      "extensions": {
        "KHR_materials_pbrSpecularGlossiness": {
          "diffuseFactor": [
            1.0,
            1.0,
            1.0,
            1.0
          ],
          "diffuseTexture": {
            "index": 0
          },
          "glossinessFactor": 0.0645721759,
          "specularFactor": [
            0.05,
            0.05,
            0.05
          ],
          "specularGlossinessTexture": {
            "index": 1
          }
        }
      },
      "name": "T_shirt",
      "normalTexture": {
        "index": 2
      }
    }
  ],
  "meshes": [
    {
      "name": "Object_0",
      "primitives": [
        {
          "attributes": {
            "NORMAL": 1,
            "POSITION": 0,
            "TANGENT": 2,
            "TEXCOORD_0": 3
          },
          "indices": 4,
          "material": 0,
          "mode": 4
        }
      ]
    }
  ],
  "nodes": [
    {
      "children": [
        1
      ],
      "matrix": [
        1.0,
        0.0,
        0.0,
        0.0,
        0.0,
        2.220446049250313e-16,
        -1.0,
        0.0,
        0.0,
        1.0,
        2.220446049250313e-16,
        0.0,
        0.0,
        0.0,
        0.0,
        1.0
      ],
      "name": "Sketchfab_model"
    },
    {
      "children": [
        2
      ],
      "name": "T-shirt_TPose.obj.cleaner.materialmerger.gles"
    },
    {
      "mesh": 0,
      "name": "Object_2"
    }
  ],
  "samplers": [
    {
      "magFilter": 9729,
      "minFilter": 9987,
      "wrapS": 10497,
      "wrapT": 10497
    }
  ],
  "scene": 0,
  "scenes": [
    {
      "name": "Sketchfab_Scene",
      "nodes": [
        0
      ]
    }
  ],
  "textures": [
    {
      "sampler": 0,
      "source": 0
    },
    {
      "sampler": 0,
      "source": 1
    },
    {
      "sampler": 0,
      "source": 2
    }
  ]
}
